<svg width="24" height="24" viewBox="0 0 24 24" fill="none" xmlns="http://www.w3.org/2000/svg">
<path fill-rule="evenodd" clip-rule="evenodd" d="M16.3928 16.3096L20.7857 21.4643L20.0238 22.1191L15.619 16.9643C14.1031 18.1151 12.3967 18.6905 10.4999 18.6905C9.34908 18.6905 8.24789 18.4663 7.19633 18.0179C6.14477 17.5695 5.24 16.9663 4.48203 16.2084C3.72406 15.4505 3.12089 14.5457 2.67252 13.4941C2.22414 12.4425 1.99994 11.3413 1.99991 10.1905C1.99988 9.03975 2.22408 7.93857 2.67252 6.88697C3.12096 5.83538 3.72413 4.93061 4.48203 4.17268C5.23994 3.41474 6.14471 2.81157 7.19633 2.36316C8.24796 1.91476 9.34914 1.69055 10.4999 1.69055C11.6506 1.69055 12.7518 1.91476 13.8035 2.36316C14.8551 2.81157 15.7598 3.41474 16.5178 4.17268C17.2757 4.93061 17.8788 5.83538 18.3273 6.88697C18.7757 7.93857 18.9999 9.03975 18.9999 10.1905C18.9999 11.3731 18.7697 12.4921 18.3094 13.5477C17.8491 14.6032 17.2102 15.5239 16.3927 16.3096L16.3928 16.3096ZM10.5 17.6905C11.8571 17.6905 13.1111 17.3552 14.2619 16.6845C15.4127 16.0138 16.3234 15.1031 16.9941 13.9523C17.6647 12.8016 18 11.5476 18 10.1904C18.0001 8.83329 17.6647 7.57932 16.9941 6.42854C16.3234 5.27775 15.4126 4.36705 14.2619 3.69643C13.1111 3.0258 11.8572 2.69049 10.5 2.69049C9.1428 2.69049 7.88883 3.0258 6.73808 3.69643C5.58733 4.36705 4.67663 5.27775 4.00597 6.42854C3.33531 7.57932 3 8.83329 3.00003 10.1904C3.00006 11.5476 3.33538 12.8016 4.00597 13.9523C4.67656 15.1031 5.58727 16.0138 6.73808 16.6845C7.88889 17.3552 9.14286 17.6905 10.5 17.6905Z" fill="white"/>
</svg>
