<svg width="24" height="24" viewBox="0 0 24 24" fill="none" xmlns="http://www.w3.org/2000/svg">
<path fill-rule="evenodd" clip-rule="evenodd" d="M6.75 5.24982C6.55109 5.24982 6.36032 5.32884 6.21967 5.46949C6.07902 5.61015 6 5.80091 6 5.99982V17.9998C6 18.1987 6.07902 18.3895 6.21967 18.5302C6.36032 18.6708 6.55109 18.7498 6.75 18.7498C6.94891 18.7498 7.13968 18.6708 7.28033 18.5302C7.42098 18.3895 7.5 18.1987 7.5 17.9998V5.99982C7.5 5.80091 7.42098 5.61015 7.28033 5.46949C7.13968 5.32884 6.94891 5.24982 6.75 5.24982Z" fill="white"/>
<path d="M7.35448 13.0455L16.9005 18.5835C17.7105 19.053 18.7485 18.4845 18.7485 17.538V6.462C18.7485 5.517 17.7105 4.947 16.9005 5.418L7.35448 10.956C7.17023 11.0612 7.01707 11.2132 6.91054 11.3967C6.804 11.5802 6.74789 11.7886 6.74789 12.0007C6.74789 12.2129 6.804 12.4213 6.91054 12.6048C7.01707 12.7883 7.17023 12.9403 7.35448 13.0455Z" fill="white"/>
</svg>
