<svg width="16" height="16" viewBox="0 0 16 16" fill="none" xmlns="http://www.w3.org/2000/svg">
<path d="M3.77049 10.8279H0.5V5.17214H3.77049H3.94844L4.08638 5.05971L8.94263 1.10171V14.8983L4.08638 10.9403L3.94844 10.8279H3.77049ZM11.1081 5.11426L11.5638 4.64557C12.357 5.58866 12.7603 6.6961 12.7787 7.98703C12.7779 9.21236 12.3807 10.2768 11.5713 11.1982L11.112 10.7258C11.7699 9.92656 12.1066 8.99657 12.1066 7.95082C12.1066 6.88491 11.7692 5.93443 11.1081 5.11426ZM13.0266 12.6638C14.2038 11.3471 14.7951 9.76275 14.7951 7.93446C14.7951 6.10607 14.2039 4.51382 13.0285 3.17986L13.5266 2.69519C14.8453 4.16633 15.5 5.89995 15.5 7.91803C15.5 9.9341 14.8465 11.6766 13.529 13.1662L13.0266 12.6638Z" stroke="white"/>
</svg>
