<svg width="24" height="24" viewBox="0 0 24 24" fill="none" xmlns="http://www.w3.org/2000/svg">
<path d="M12 21.6596L8.61921 23.5139L6.77763 20.1262L2.93101 19.8583L3.21332 16.0127L0.122139 13.7078L2.43872 10.6253L1.08442 7.01502L4.69976 5.67431L5.51231 1.90496L9.27858 2.73168L12 0L14.7214 2.73168L18.4877 1.90496L19.3002 5.67431L22.9156 7.01502L21.5613 10.6253L23.8779 13.7078L20.7867 16.0127L21.069 19.8583L17.2224 20.1262L15.3808 23.5139L12 21.6596Z" fill="#2E77D0"/>
<path d="M16.8637 7.41226L10.2202 15.1905L7.41599 11.9063L6.92249 12.4838L10.2202 16.3455L17.4337 7.89901L16.8637 7.41226V7.41226Z" fill="white"/>
</svg>
