<svg width="24" height="24" viewBox="0 0 24 24" fill="none" xmlns="http://www.w3.org/2000/svg">
<path d="M10 5H4.5C3.94772 5 3.5 5.44772 3.5 6V15.5C3.5 16.0523 3.94772 16.5 4.5 16.5H10V15.5H4.5V6H10V5Z" fill="white"/>
<path d="M10 17.5427C9.92181 17.515 9.83765 17.5 9.75 17.5H7.25C6.83578 17.5 6.5 17.8358 6.5 18.25C6.5 18.6642 6.83578 19 7.25 19H9.75C9.83765 19 9.92181 18.985 10 18.9573V17.5427Z" fill="white"/>
<path fill-rule="evenodd" clip-rule="evenodd" d="M16.5 16.5C17.8807 16.5 19 15.3807 19 14C19 12.6193 17.8807 11.5 16.5 11.5C15.1193 11.5 14 12.6193 14 14C14 15.3807 15.1193 16.5 16.5 16.5ZM16.5 15.5C17.3284 15.5 18 14.8284 18 14C18 13.1716 17.3284 12.5 16.5 12.5C15.6716 12.5 15 13.1716 15 14C15 14.8284 15.6716 15.5 16.5 15.5Z" fill="white"/>
<path d="M16.5 9.5C17.0523 9.5 17.5 9.05228 17.5 8.5C17.5 7.94772 17.0523 7.5 16.5 7.5C15.9477 7.5 15.5 7.94772 15.5 8.5C15.5 9.05228 15.9477 9.5 16.5 9.5Z" fill="white"/>
<path fill-rule="evenodd" clip-rule="evenodd" d="M13 5C12.4477 5 12 5.44772 12 6V18C12 18.5523 12.4477 19 13 19H20C20.5523 19 21 18.5523 21 18V6C21 5.44772 20.5523 5 20 5H13ZM20 6H13V18H20V6Z" fill="white"/>
</svg>
