<svg width="16" height="24" viewBox="0 0 16 24" fill="none" xmlns="http://www.w3.org/2000/svg">
<path d="M8.5926 17.6777C8.5926 18.9607 7.26519 20 5.62963 20C3.99408 20 2.66667 18.9607 2.66667 17.6777C2.66667 16.3946 3.99408 15.3554 5.62963 15.3554C7.26519 15.3554 8.5926 16.3946 8.5926 17.6777Z" fill="white"/>
<path fill-rule="evenodd" clip-rule="evenodd" d="M8.59259 6.06613V17.6777H7.40741V6.06613H8.59259Z" fill="white"/>
<path d="M7.40741 5.85714C7.40758 5.58881 7.50259 5.32882 7.67631 5.12136C7.85003 4.91391 8.09172 4.77181 8.3603 4.71921L11.9159 4.02252C12.0877 3.98886 12.2651 3.99298 12.4352 4.03456C12.6052 4.07614 12.7637 4.15417 12.8993 4.26301C13.0349 4.37185 13.1441 4.50879 13.2192 4.66398C13.2942 4.81916 13.3332 4.98873 13.3333 5.16045V7.22731L7.40741 8.38846V5.85714Z" fill="white"/>
</svg>
