<svg width="24" height="24" viewBox="0 0 24 24" fill="none" xmlns="http://www.w3.org/2000/svg">
<path d="M16.7381 16L21.1666 21.1905L19.6428 22.4881L15.2262 17.3096C13.7976 18.262 12.2222 18.7381 10.5 18.7381C9.34914 18.7381 8.24795 18.5139 7.19639 18.0655C6.14483 17.6171 5.24006 17.014 4.48209 16.256C3.72413 15.4981 3.12095 14.5933 2.67258 13.5417C2.2242 12.4901 2 11.3889 1.99997 10.2382C1.99994 9.08738 2.22414 7.98619 2.67258 6.9346C3.12102 5.883 3.72419 4.97824 4.48209 4.2203C5.24 3.46236 6.14477 2.85919 7.19639 2.41078C8.24802 1.96238 9.3492 1.73817 10.5 1.73817C11.6507 1.73817 12.7519 1.96238 13.8035 2.41078C14.8551 2.85919 15.7599 3.46236 16.5178 4.2203C17.2757 4.97824 17.8789 5.883 18.3273 6.9346C18.7758 7.98619 19 9.08738 18.9999 10.2382C18.9999 10.9683 18.9087 11.6826 18.7261 12.381C18.5436 13.0794 18.2837 13.7302 17.9464 14.3334C17.6091 14.9366 17.2063 15.4921 16.738 16H16.7381ZM10.5 16.7381C11.3809 16.7381 12.2222 16.5655 13.0238 16.2202C13.8254 15.875 14.5159 15.4127 15.0952 14.8333C15.6745 14.254 16.1368 13.5635 16.4821 12.7619C16.8273 11.9603 17 11.119 17 10.2381C17 9.35717 16.8273 8.51591 16.4821 7.71432C16.1368 6.91272 15.6745 6.22224 15.0952 5.64286C14.5159 5.06349 13.8254 4.60119 13.0238 4.25597C12.2222 3.91075 11.3809 3.73814 10.5 3.73814C9.61906 3.73814 8.7778 3.91075 7.9762 4.25597C7.17461 4.60119 6.48413 5.0635 5.90475 5.64291C5.32538 6.22232 4.86308 6.91278 4.51786 7.71432C4.17264 8.51585 4.00003 9.35711 4.00003 10.2381C4.00003 11.1191 4.17264 11.9604 4.51786 12.7619C4.86308 13.5634 5.32539 14.2539 5.9048 14.8333C6.4842 15.4127 7.17467 15.875 7.9762 16.2202C8.77773 16.5654 9.619 16.738 10.5 16.7381Z" fill="white"/>
</svg>
