<svg width="24" height="24" viewBox="0 0 24 24" fill="none" xmlns="http://www.w3.org/2000/svg">
<path d="M4 9H7.5C8.236 9 8.893 9.391 9.351 10.001C9.67629 9.39897 10.0765 8.84054 10.542 8.339C9.739 7.516 8.676 7 7.5 7H4C3.73478 7 3.48043 7.10536 3.29289 7.29289C3.10536 7.48043 3 7.73478 3 8C3 8.26522 3.10536 8.51957 3.29289 8.70711C3.48043 8.89464 3.73478 9 4 9ZM11.685 12.111C12.236 10.454 13.941 9 15.334 9H17.172L15.879 10.293C15.7862 10.3858 15.7125 10.4961 15.6623 10.6174C15.612 10.7387 15.5862 10.8687 15.5862 11C15.5862 11.1313 15.612 11.2613 15.6623 11.3826C15.7125 11.5039 15.7862 11.6142 15.879 11.707C15.9718 11.7998 16.0821 11.8735 16.2034 11.9237C16.3247 11.974 16.4547 11.9999 16.586 11.9999C16.7173 11.9999 16.8473 11.974 16.9686 11.9237C17.0899 11.8735 17.2002 11.7998 17.293 11.707L21 8L17.293 4.293C17.2002 4.20016 17.0899 4.12651 16.9686 4.07626C16.8473 4.02601 16.7173 4.00015 16.586 4.00015C16.4547 4.00015 16.3247 4.02601 16.2034 4.07626C16.0821 4.12651 15.9718 4.20016 15.879 4.293C15.7862 4.38585 15.7125 4.49607 15.6623 4.61738C15.612 4.73868 15.5862 4.8687 15.5862 5C15.5862 5.1313 15.612 5.26132 15.6623 5.38263C15.7125 5.50393 15.7862 5.61416 15.879 5.707L17.172 7H15.334C13.06 7 10.623 8.967 9.787 11.479L9.315 12.89C8.674 14.816 7.243 16 6.5 16H4C3.73478 16 3.48043 16.1054 3.29289 16.2929C3.10536 16.4804 3 16.7348 3 17C3 17.2652 3.10536 17.5196 3.29289 17.7071C3.48043 17.8946 3.73478 18 4 18H6.5C8.337 18 10.363 16.075 11.213 13.521L11.685 12.111ZM15.879 13.293C15.7861 13.3858 15.7123 13.496 15.662 13.6173C15.6117 13.7386 15.5858 13.8687 15.5858 14C15.5858 14.1313 15.6117 14.2614 15.662 14.3827C15.7123 14.504 15.7861 14.6142 15.879 14.707L17.172 16H14.834C13.566 16 12.504 15.109 12.143 13.892C11.8769 14.6649 11.5104 15.3995 11.053 16.077C11.939 17.239 13.296 18 14.834 18H17.172L15.879 19.293C15.7862 19.3858 15.7125 19.4961 15.6623 19.6174C15.612 19.7387 15.5862 19.8687 15.5862 20C15.5862 20.1313 15.612 20.2613 15.6623 20.3826C15.7125 20.5039 15.7862 20.6142 15.879 20.707C15.9718 20.7998 16.0821 20.8735 16.2034 20.9237C16.3247 20.974 16.4547 20.9999 16.586 20.9999C16.7173 20.9999 16.8473 20.974 16.9686 20.9237C17.0899 20.8735 17.2002 20.7998 17.293 20.707L21 17L17.293 13.293C17.2002 13.2001 17.09 13.1263 16.9687 13.076C16.8474 13.0257 16.7173 12.9998 16.586 12.9998C16.4547 12.9998 16.3246 13.0257 16.2033 13.076C16.082 13.1263 15.9718 13.2001 15.879 13.293Z" fill="white"/>
</svg>
