<svg width="24" height="24" viewBox="0 0 24 24" fill="none" xmlns="http://www.w3.org/2000/svg">
<path fill-rule="evenodd" clip-rule="evenodd" d="M18 5.24982C18.1989 5.24982 18.3897 5.32884 18.5303 5.46949C18.671 5.61015 18.75 5.80091 18.75 5.99982V17.9998C18.75 18.1987 18.671 18.3895 18.5303 18.5302C18.3897 18.6708 18.1989 18.7498 18 18.7498C17.8011 18.7498 17.6103 18.6708 17.4697 18.5302C17.329 18.3895 17.25 18.1987 17.25 17.9998V5.99982C17.25 5.80091 17.329 5.61015 17.4697 5.46949C17.6103 5.32884 17.8011 5.24982 18 5.24982Z" fill="white"/>
<path d="M17.394 13.0455L7.8495 18.5835C7.0395 19.053 6 18.4845 6 17.538V6.462C6 5.517 7.038 4.947 7.8495 5.418L17.394 10.956C17.5783 11.0612 17.7314 11.2132 17.8379 11.3967C17.9445 11.5802 18.0006 11.7886 18.0006 12.0007C18.0006 12.2129 17.9445 12.4213 17.8379 12.6048C17.7314 12.7883 17.5783 12.9403 17.394 13.0455Z" fill="white"/>
</svg>
